<svg xmlns="http://www.w3.org/2000/svg" viewBox="0 0 320 420" width="320" height="420">
  <defs>
    <radialGradient id="outer" cx="50%" cy="46%" r="62%">
      <stop offset="0" stop-color="#b9e8f0" stop-opacity=".88"></stop>
      <stop offset=".46" stop-color="#49b3d8" stop-opacity=".72"></stop>
      <stop offset="1" stop-color="#008bc2" stop-opacity=".18"></stop>
    </radialGradient>
    <radialGradient id="middle" cx="50%" cy="44%" r="62%">
      <stop offset="0" stop-color="#b9e8f0" stop-opacity=".96"></stop>
      <stop offset=".52" stop-color="#49b3d8" stop-opacity=".9"></stop>
      <stop offset="1" stop-color="#008bc2" stop-opacity=".66"></stop>
    </radialGradient>
    <radialGradient id="inner" cx="50%" cy="38%" r="68%">
      <stop offset="0" stop-color="#74cde2"></stop>
      <stop offset=".48" stop-color="#b9e8f0"></stop>
      <stop offset="1" stop-color="#49b3d8"></stop>
    </radialGradient>
    <linearGradient id="ray" x1="0" y1="1" x2="0" y2="0">
      <stop offset="0" stop-color="#74cde2" stop-opacity="0"></stop>
      <stop offset=".65" stop-color="#74cde2" stop-opacity=".7"></stop>
      <stop offset="1" stop-color="#74cde2" stop-opacity="0"></stop>
    </linearGradient>
    <filter id="glow" x="-35%" y="-35%" width="170%" height="170%"><feGaussianBlur stdDeviation="5"></feGaussianBlur></filter>
    <path id="shape" d="M160 12C195 12 204 73 234 80C271 78 305 96 310 128C315 159 278 177 275 206C279 245 258 281 225 291C198 300 177 278 160 270C141 279 119 301 91 291C56 281 36 245 44 207C39 178 5 161 10 128C15 96 49 78 86 80C116 73 125 12 160 12Z"></path>
    <clipPath id="outer-clip"><use href="#shape"></use></clipPath>
    <clipPath id="inner-clip"><use href="#shape" transform="translate(80 80) scale(.5)"></use></clipPath>
  </defs>
  <use href="#shape" fill="url(#outer)" stroke="#74cde2" stroke-opacity="0.48" stroke-width="2"></use>
  <g clip-path="url(#outer-clip)" filter="url(#glow)">
    <path d="M160 162 130 25h60Z" fill="url(#ray)" opacity="0.34" transform="rotate(0 160 162)"></path>
    <path d="M160 162 130 25h60Z" fill="url(#ray)" opacity="0.34" transform="rotate(72 160 162)"></path>
    <path d="M160 162 130 25h60Z" fill="url(#ray)" opacity="0.34" transform="rotate(144 160 162)"></path>
    <path d="M160 162 130 25h60Z" fill="url(#ray)" opacity="0.34" transform="rotate(216 160 162)"></path>
    <path d="M160 162 130 25h60Z" fill="url(#ray)" opacity="0.34" transform="rotate(288 160 162)"></path>
  </g>
  <use href="#shape" fill="url(#middle)" stroke="#74cde2" stroke-width="2.1" transform="translate(35.2 35.2) scale(.78)"></use>
  <use href="#shape" fill="url(#inner)" stroke="#74cde2" stroke-width="1.8" transform="translate(80 80) scale(.5)"></use>
  <g clip-path="url(#inner-clip)" filter="url(#glow)">
    <path d="M160 161 145 88h30Z" fill="url(#ray)" opacity="0.58" transform="rotate(0 160 161)"></path>
    <path d="M160 161 145 88h30Z" fill="url(#ray)" opacity="0.58" transform="rotate(72 160 161)"></path>
    <path d="M160 161 145 88h30Z" fill="url(#ray)" opacity="0.58" transform="rotate(144 160 161)"></path>
    <path d="M160 161 145 88h30Z" fill="url(#ray)" opacity="0.58" transform="rotate(216 160 161)"></path>
    <path d="M160 161 145 88h30Z" fill="url(#ray)" opacity="0.58" transform="rotate(288 160 161)"></path>
  </g>
  <circle cx="160" cy="161" r="7" fill="#b9e8f0" stroke="#229ac9" stroke-width="1.3"></circle>
  <text x="160" y="380" text-anchor="middle" font-family="-apple-system, BlinkMacSystemFont, &#39;SF Pro Display&#39;, &#39;Segoe UI&#39;, sans-serif" font-size="46" font-weight="700" letter-spacing="-1.6" fill="#10222d">Anima</text>
</svg>